# xmcd
#
# Track frame offsets: 
#        150
#        21500
#        52112
#        69362
#        90437
#        107062
#        125662
#        148775
#        172812
#        185337
#        208900
#        222250
#        241337
#        266050
#        277025
#        299100
#        314725
#
# Disc length: 4487 seconds
#
# Revision: 4
# Processed by: cddbd v1.5.2PL0 Copyright (c) Steve Scherf et al.
# Submitted via: ExactAudioCopy v0.99pb4
#
DISCID=19118511
DTITLE=Various Artist - I Love Jazz - ROSE
DYEAR=2003
DGENRE=Jazz
TTITLE0=Diana Krall - The Look of Love
TTITLE1=Quincy Jones - Tell Me A Bedtime Stroy
TTITLE2=Ella Fizgerald - Too Darn Hot
TTITLE3=Bernie Williams - La Salsa En Me
TTITLE4=Chet Baker - Everything Happens To Me
TTITLE5=Wes Montgomery - Sunny
TTITLE6=Yoshiko Kishino - Siesta (Vocal Version)
TTITLE7=John Coltrane And Johnny Hartman - They Say It's Wonderful
TTITLE8=Monica Zetterlund - Wartz For Debby (Monicas Vals)
TTITLE9=Kenji Hino - Pop's
TTITLE10=Billie Holiday - My Man (Mon Homme)
TTITLE11=Stan Getz and Joao Gilberto - Desafinado
TTITLE12=akiko - Gee Baby, Ain't I Good To You
TTITLE13=Louis Armstrong - Hello, Dolly!
TTITLE14=bebe - I feel free - Close to you
TTITLE15=Clifford brown - Stardust
TTITLE16=The Oscar Peterson Trio - Night Train
EXTD=
EXTT0=
EXTT1=
EXTT2=
EXTT3=
EXTT4=
EXTT5=
EXTT6=
EXTT7=
EXTT8=
EXTT9=
EXTT10=
EXTT11=
EXTT12=
EXTT13=
EXTT14=
EXTT15=
EXTT16=
PLAYORDER=
